<svg width="18" height="22" viewBox="0 0 18 22" fill="none" xmlns="http://www.w3.org/2000/svg">
<path id="Vector" d="M15.0393 3.26117C13.5083 1.80305 11.4647 1 9.28504 1C7.10535 1 5.06179 1.80305 3.53071 3.26117C0.68177 5.97445 0.235766 9.2327 2.20513 12.9453C3.82045 15.9904 6.72952 18.7606 8.85368 20.7833L8.93703 20.8627C9.03317 20.9542 9.15908 21 9.28504 21C9.411 21 9.537 20.9542 9.63306 20.8627L9.71657 20.7832C11.8406 18.7605 14.7497 15.9903 16.365 12.9452C18.3343 9.23262 17.8883 5.97445 15.0393 3.26117ZM15.4864 12.5225C14.0068 15.3118 11.3333 17.9154 9.28504 19.8683C7.2368 17.9155 4.56328 15.3118 3.08373 12.5226C1.30287 9.16527 1.67673 6.3527 4.22679 3.9241C5.62136 2.59598 7.4532 1.93188 9.285 1.93188C11.1168 1.93188 12.9487 2.59594 14.3433 3.9241C16.8933 6.35266 17.2672 9.16523 15.4864 12.5225ZM9.285 5.75773C7.29136 5.75773 5.66935 7.3025 5.66935 9.20125C5.66935 11.1 7.29136 12.6448 9.285 12.6448C11.2787 12.6448 12.9007 11.1 12.9007 9.20125C12.9007 7.3025 11.2787 5.75773 9.285 5.75773ZM9.285 11.7073C7.83412 11.7073 6.65373 10.5831 6.65373 9.20125C6.65373 7.81941 7.83412 6.69523 9.285 6.69523C10.7359 6.69523 11.9163 7.81941 11.9163 9.20125C11.9163 10.5831 10.7359 11.7073 9.285 11.7073Z" fill="black" stroke="black" stroke-width="0.5"/>
</svg>
